<svg xmlns="http://www.w3.org/2000/svg" viewBox="0 0 256 256" role="img" aria-label="">
  <defs>
    <radialGradient id="sphere" cx="35%" cy="24%" r="74%">
      <stop offset="0" stop-color="#ffffff"/>
      <stop offset="0.18" stop-color="#ffe4ff"/>
      <stop offset="0.38" stop-color="#ff87c7"/>
      <stop offset="0.62" stop-color="#9a6dff"/>
      <stop offset="1" stop-color="#4f8cff"/>
    </radialGradient>
    <linearGradient id="shine" x1="0" x2="1" y1="0" y2="1">
      <stop offset="0" stop-color="#ffffff" stop-opacity="0.95"/>
      <stop offset="0.45" stop-color="#ffe3ff" stop-opacity="0.78"/>
      <stop offset="1" stop-color="#8ee8ff" stop-opacity="0.78"/>
    </linearGradient>
    <linearGradient id="facetPink" x1="0" x2="1" y1="0" y2="1">
      <stop offset="0" stop-color="#ffd4f0"/>
      <stop offset="1" stop-color="#ff75bd"/>
    </linearGradient>
    <linearGradient id="facetBlue" x1="0" x2="1" y1="0" y2="1">
      <stop offset="0" stop-color="#d9f8ff"/>
      <stop offset="1" stop-color="#50c9ff"/>
    </linearGradient>
    <filter id="glow" x="-30%" y="-30%" width="160%" height="160%">
      <feGaussianBlur in="SourceAlpha" stdDeviation="7" result="blur"/>
      <feColorMatrix in="blur" type="matrix" values="0 0 0 0 1 0 0 0 0 0.48 0 0 0 0 0.9 0 0 0 0.56 0" result="pinkGlow"/>
      <feMerge>
        <feMergeNode in="pinkGlow"/>
        <feMergeNode in="SourceGraphic"/>
      </feMerge>
    </filter>
    <clipPath id="clip">
      <circle cx="128" cy="128" r="96"/>
    </clipPath>
  </defs>

  <circle cx="128" cy="128" r="104" fill="#ffffff" opacity="0.2"/>
  <circle cx="128" cy="128" r="98" fill="url(#sphere)" filter="url(#glow)"/>

  <g clip-path="url(#clip)">
    <path d="M31 82c63 10 130 10 194 0" fill="none" stroke="#ffffff" stroke-opacity="0.46" stroke-width="3"/>
    <path d="M27 115c67 8 135 8 202 0" fill="none" stroke="#ffffff" stroke-opacity="0.5" stroke-width="3"/>
    <path d="M30 149c65 8 131 8 196 0" fill="none" stroke="#ffffff" stroke-opacity="0.45" stroke-width="3"/>
    <path d="M43 181c56 10 113 10 170 0" fill="none" stroke="#ffffff" stroke-opacity="0.38" stroke-width="3"/>
    <path d="M57 51c15 43 15 111 0 154" fill="none" stroke="#ffffff" stroke-opacity="0.42" stroke-width="3"/>
    <path d="M91 34c9 56 9 132 0 188" fill="none" stroke="#ffffff" stroke-opacity="0.45" stroke-width="3"/>
    <path d="M128 31c3 58 3 136 0 194" fill="none" stroke="#ffffff" stroke-opacity="0.52" stroke-width="3"/>
    <path d="M165 34c-9 56-9 132 0 188" fill="none" stroke="#ffffff" stroke-opacity="0.45" stroke-width="3"/>
    <path d="M199 51c-15 43-15 111 0 154" fill="none" stroke="#ffffff" stroke-opacity="0.42" stroke-width="3"/>

    <rect x="62" y="62" width="28" height="21" rx="5" fill="url(#shine)" opacity="0.92"/>
    <rect x="98" y="65" width="28" height="23" rx="5" fill="#ffffff" opacity="0.84"/>
    <rect x="134" y="65" width="31" height="23" rx="5" fill="url(#facetBlue)" opacity="0.86"/>
    <rect x="172" y="75" width="25" height="20" rx="5" fill="#f7ccff" opacity="0.72"/>

    <rect x="48" y="101" width="32" height="25" rx="5" fill="url(#facetPink)" opacity="0.76"/>
    <rect x="88" y="101" width="32" height="25" rx="5" fill="#ffffff" opacity="0.86"/>
    <rect x="129" y="101" width="35" height="25" rx="5" fill="#efe8ff" opacity="0.84"/>
    <rect x="172" y="101" width="35" height="25" rx="5" fill="url(#facetBlue)" opacity="0.74"/>

    <rect x="51" y="139" width="34" height="24" rx="5" fill="#ffd1ec" opacity="0.74"/>
    <rect x="93" y="139" width="35" height="24" rx="5" fill="#ff9fd3" opacity="0.72"/>
    <rect x="137" y="139" width="35" height="24" rx="5" fill="#ffffff" opacity="0.78"/>
    <rect x="180" y="139" width="27" height="24" rx="5" fill="#b9f0ff" opacity="0.74"/>

    <rect x="75" y="174" width="31" height="21" rx="5" fill="#ffe7fb" opacity="0.74"/>
    <rect x="116" y="174" width="33" height="21" rx="5" fill="#ffffff" opacity="0.76"/>
    <rect x="158" y="172" width="29" height="21" rx="5" fill="#af8fff" opacity="0.56"/>
  </g>

  <circle cx="90" cy="76" r="14" fill="#ffffff" opacity="0.82"/>
  <ellipse cx="105" cy="89" rx="43" ry="21" fill="#ffffff" opacity="0.16" transform="rotate(-28 105 89)"/>
  <path d="M45 126c0-45 37-82 83-82" fill="none" stroke="#ffffff" stroke-width="9" stroke-linecap="round" opacity="0.28"/>
  <circle cx="128" cy="128" r="98" fill="none" stroke="#ffffff" stroke-width="5" opacity="0.72"/>
  <circle cx="128" cy="128" r="101" fill="none" stroke="#8b5cf6" stroke-width="2" opacity="0.18"/>
</svg>
