<svg xmlns="http://www.w3.org/2000/svg" viewBox="0 0 256 256" role="img" aria-label="">
  <defs>
    <radialGradient id="ballGlow" cx="38%" cy="26%" r="72%">
      <stop offset="0" stop-color="#ffffff"/>
      <stop offset="0.16" stop-color="#ffe9ff"/>
      <stop offset="0.38" stop-color="#ff7eb3"/>
      <stop offset="0.62" stop-color="#8b5cf6"/>
      <stop offset="1" stop-color="#4f8cff"/>
    </radialGradient>
    <linearGradient id="tileLight" x1="0" x2="1" y1="0" y2="1">
      <stop offset="0" stop-color="#ffffff" stop-opacity="0.95"/>
      <stop offset="0.45" stop-color="#ffd6ff" stop-opacity="0.72"/>
      <stop offset="1" stop-color="#7dd3fc" stop-opacity="0.78"/>
    </linearGradient>
    <filter id="softShadow" x="-35%" y="-35%" width="170%" height="170%">
      <feDropShadow dx="0" dy="12" stdDeviation="10" flood-color="#3b1b8f" flood-opacity="0.28"/>
      <feDropShadow dx="0" dy="0" stdDeviation="12" flood-color="#ffffff" flood-opacity="0.55"/>
    </filter>
    <clipPath id="ballClip">
      <circle cx="128" cy="130" r="92"/>
    </clipPath>
  </defs>
  <path d="M128 13v25" fill="none" stroke="#f8f4ff" stroke-width="6" stroke-linecap="round"/>
  <circle cx="128" cy="130" r="96" fill="url(#ballGlow)" filter="url(#softShadow)"/>
  <g clip-path="url(#ballClip)" stroke="#ffffff" stroke-opacity="0.42" stroke-width="2">
    <path d="M36 86h184M28 118h200M31 151h194M48 181h160"/>
    <path d="M60 50c16 46 16 112 0 160M94 34c9 58 9 132 0 190M128 30v198M162 34c-9 58-9 132 0 190M196 50c-16 46-16 112 0 160"/>
  </g>
  <g clip-path="url(#ballClip)" opacity="0.88">
    <rect x="64" y="66" width="28" height="20" rx="4" fill="url(#tileLight)"/>
    <rect x="100" y="70" width="28" height="22" rx="4" fill="#ffffff" opacity="0.84"/>
    <rect x="137" y="70" width="32" height="22" rx="4" fill="#9ce7ff" opacity="0.74"/>
    <rect x="173" y="80" width="25" height="20" rx="4" fill="#fbd4ff" opacity="0.68"/>
    <rect x="48" y="105" width="32" height="25" rx="4" fill="#ffb7dc" opacity="0.68"/>
    <rect x="88" y="106" width="32" height="25" rx="4" fill="#ffffff" opacity="0.82"/>
    <rect x="129" y="106" width="34" height="25" rx="4" fill="#e6ddff" opacity="0.82"/>
    <rect x="171" y="106" width="35" height="25" rx="4" fill="#71d9ff" opacity="0.7"/>
    <rect x="52" y="142" width="34" height="24" rx="4" fill="#ffd0ec" opacity="0.72"/>
    <rect x="94" y="142" width="35" height="24" rx="4" fill="#ff9ed0" opacity="0.68"/>
    <rect x="138" y="142" width="35" height="24" rx="4" fill="#ffffff" opacity="0.78"/>
    <rect x="180" y="142" width="26" height="24" rx="4" fill="#bfefff" opacity="0.72"/>
    <rect x="78" y="176" width="30" height="20" rx="4" fill="#ffe7fb" opacity="0.72"/>
    <rect x="117" y="176" width="32" height="20" rx="4" fill="#ffffff" opacity="0.74"/>
    <rect x="158" y="174" width="28" height="20" rx="4" fill="#8b5cf6" opacity="0.42"/>
  </g>
  <circle cx="91" cy="78" r="13" fill="#ffffff" opacity="0.74"/>
  <path d="M45 128c0-46 37-83 83-83" fill="none" stroke="#ffffff" stroke-width="8" stroke-linecap="round" opacity="0.28"/>
  <circle cx="128" cy="130" r="96" fill="none" stroke="#ffffff" stroke-width="5" opacity="0.64"/>
</svg>
